<svg width="105" height="107" viewBox="0 0 105 107" fill="none" xmlns="http://www.w3.org/2000/svg">
<path d="M52.5 0.499512C81.23 0.499512 104.5 24.1703 104.5 53.3952C104.5 82.6201 81.23 106.291 52.5 106.291C23.77 106.291 0.5 82.6201 0.5 53.3952C0.5 24.1703 23.77 0.499512 52.5 0.499512ZM52.5 13.7234C48.21 13.7234 44.18 14.9136 40.28 16.236C43.01 18.8808 46.13 21.2611 45.61 23.6414C45.09 26.0217 36.64 25.3605 36.64 30.2533C36.64 33.8238 42.1 34.8817 38.33 38.9811C33.78 43.6095 46.65 51.9406 46.91 58.0236C47.3 68.9994 35.99 70.8508 27.02 70.8508C21.56 70.8508 20.13 73.4956 20.52 76.6693C27.54 86.8517 39.5 93.1992 52.63 93.1992C57.57 93.1992 62.12 92.0091 66.41 90.29C63.55 84.4714 70.05 72.9666 76.16 69.2639C79.15 66.2224 85.52 67.4126 89.16 65.9579C90.33 62.3875 91.5 58.817 91.63 54.8498C91.24 54.1886 90.59 53.6597 89.55 53.6597C87.08 53.6597 83.7 58.6848 81.88 58.1558C79.54 57.6269 91.5 40.8325 85.91 37.5265C83.31 35.9396 78.11 42.6838 79.8 35.4107C81.36 28.6665 75.12 31.708 71.22 29.9889C67.84 28.5342 65.37 24.5671 69.53 22.1867C70.31 21.79 71.22 20.8644 72.39 19.6742C66.54 16.1037 59.78 13.8557 52.5 13.8557V13.7234ZM22.47 28.1375C20.13 31.0468 18.31 34.2205 16.75 37.6587V38.0555C17.27 38.9811 18.18 39.5101 19.61 40.9647C23.25 44.6674 23.77 38.1877 25.33 36.8653C27.02 35.2784 33.13 37.1298 33.91 35.1462C34.82 32.7659 27.41 29.5921 22.47 28.1375Z" fill="white"/>
</svg>
